Coordinates
version=1
nRows=22
nColumns=33
inDegrees=yes

Units are S.I. units (second, meters, Newtons, ...)
Angles are in degrees.

endheader
time	ground_thorax_rot_x	ground_thorax_rot_y	ground_thorax_rot_z	ground_thorax_tx	ground_thorax_ty	ground_thorax_tz	clav_prot_r	clav_elev_r	scapula_abduction_r	scapula_elevation_r	scapula_upward_rot_r	scapula_winging_r	shoulder_elv_r	plane_of_elev_r	axial_rot_r	elbow_flexion_r	pro_sup_r	wrist_flex_r	wrist_dev_r	clav_prot_l	clav_elev_l	scapula_abduction_l	scapula_elevation_l	scapula_upward_rot_l	scapula_winging_l	shoulder_elv_l	plane_of_elev_l	axial_rot_l	elbow_flexion_l	pro_sup_l	wrist_flex_l	wrist_dev_l	
10.4100	-13.073672	-34.349798	62.109246	22.049308	788.607915	-26.014299	30.336675	-45.000000	39.930898	-45.000000	-45.000000	-2623.811681	-3887.406243	19.262197	-139.194302	1800.533963	-183.905098	10.993485	12.325730	-3.696006	29.994732	-24.616282	-45.000000	-45.000000	-2079.331420	-2446.128279	26.044542	50.731001	1426.172025	39.273233	11.940581	-14.376125	
10.4200	-13.279401	-34.314014	61.938190	22.014353	788.437364	-26.278708	30.203305	-45.000000	39.827342	-45.000000	-45.000000	-2623.764105	-3887.432418	19.292913	-139.172506	1800.573475	-184.024779	10.980250	12.325808	-3.667713	30.014244	-24.656947	-45.000000	-45.000000	-2079.326664	-2446.053259	26.092589	50.702688	1426.261765	39.296114	11.985236	-14.302314	
10.4300	-13.435339	-34.305342	61.854895	22.012091	788.119179	-26.737509	30.126455	-45.000000	39.781265	-45.000000	-45.000000	-2623.729151	-3887.428851	19.291441	-139.155957	1800.595597	-184.141204	10.960753	12.331251	-3.598252	30.025648	-24.714803	-45.000000	-45.000000	-2079.272042	-2445.995239	26.103007	50.652405	1426.356713	39.377303	12.025922	-14.264307	
10.4400	-13.642526	-34.315341	61.768942	22.026624	787.603282	-27.471560	30.038263	-45.000000	39.727352	-45.000000	-45.000000	-2623.682665	-3887.417905	19.279720	-139.132537	1800.618375	-184.297686	10.931463	12.340875	-3.479326	30.042332	-24.799794	-45.000000	-45.000000	-2079.189549	-2445.921819	26.116023	50.565808	1426.497950	39.526927	12.076483	-14.222958	
10.4500	-13.964858	-34.373081	61.694825	22.158878	786.536861	-28.945478	29.952066	-45.000000	39.662080	-45.000000	-45.000000	-2623.620083	-3887.389707	19.246561	-139.077059	1800.633925	-184.476384	10.903408	12.365669	-3.263102	30.069707	-24.936427	-45.000000	-45.000000	-2079.020680	-2445.808571	26.139176	50.381331	1426.771672	39.877192	12.184211	-14.172937	
10.4600	-14.369440	-34.477582	61.644524	22.385928	785.034453	-31.002175	29.884751	-45.000000	39.591601	-45.000000	-45.000000	-2623.539573	-3887.344271	19.187193	-138.996010	1800.644295	-184.675526	10.872435	12.401225	-2.960520	30.114078	-25.125287	-45.000000	-45.000000	-2078.774402	-2445.671801	26.159958	50.125686	1427.149897	40.431752	12.309004	-14.115152	
10.4700	-14.850550	-34.614641	61.593255	22.683845	783.202212	-33.498343	29.825328	-45.000000	39.509350	-45.000000	-45.000000	-2623.453523	-3887.293519	19.122544	-138.891873	1800.651668	-184.888576	10.847367	12.448164	-2.613757	30.165983	-25.340825	-45.000000	-45.000000	-2078.473216	-2445.508462	26.200253	49.822456	1427.620401	41.173531	12.462537	-14.051940	
10.4800	-15.289201	-34.748197	61.550457	22.924073	781.523447	-35.791627	29.795164	-45.000000	39.439573	-45.000000	-45.000000	-2623.375797	-3887.240735	19.060745	-138.802609	1800.655776	-185.106930	10.820849	12.491997	-2.291913	30.224552	-25.544451	-45.000000	-45.000000	-2078.185146	-2445.364185	26.240441	49.558165	1428.057337	41.946890	12.559377	-13.990016	
10.4900	-15.691100	-34.862973	61.492519	23.074156	780.058029	-37.813393	29.756770	-45.000000	39.378438	-45.000000	-45.000000	-2623.315394	-3887.195375	19.017842	-138.744872	1800.658298	-185.329130	10.795862	12.536249	-2.008318	30.268167	-25.715848	-45.000000	-45.000000	-2077.929144	-2445.221721	26.297559	49.341226	1428.443768	42.681995	12.634699	-13.948488	
10.5000	-15.963750	-34.931328	61.433010	23.023542	779.176134	-39.079473	29.744216	-45.000000	39.343342	-45.000000	-45.000000	-2623.277188	-3887.155300	18.992994	-138.744373	1800.658289	-185.549586	10.769537	12.565415	-1.823147	30.308539	-25.845574	-45.000000	-45.000000	-2077.743934	-2445.129284	26.342065	49.229232	1428.687469	43.226016	12.623554	-13.912911	
10.5100	-16.133266	-34.950349	61.362076	22.778188	778.791225	-39.716612	29.728375	-45.000000	39.332145	-45.000000	-45.000000	-2623.271386	-3887.125244	18.999037	-138.807128	1800.659058	-185.764383	10.740648	12.586163	-1.725699	30.326695	-25.922465	-45.000000	-45.000000	-2077.635207	-2445.063559	26.377781	49.190638	1428.812558	43.551029	12.564252	-13.910308	
10.5200	-16.220851	-34.928024	61.278435	22.349119	778.830862	-39.828383	29.728474	-45.000000	39.334632	-45.000000	-45.000000	-2623.275343	-3887.095977	19.019243	-138.917913	1800.659622	-185.967155	10.715825	12.593672	-1.700648	30.350877	-25.975667	-45.000000	-45.000000	-2077.569093	-2445.035743	26.404633	49.208911	1428.841170	43.666003	12.456222	-13.894798	
10.5300	-16.314548	-34.894619	61.188506	21.838551	778.902043	-39.942176	29.712298	-45.000000	39.340939	-45.000000	-45.000000	-2623.285781	-3887.066640	19.046545	-139.061026	1800.664010	-186.158728	10.690096	12.603568	-1.670433	30.364160	-26.031020	-45.000000	-45.000000	-2077.506517	-2444.994219	26.418924	49.205855	1428.866794	43.693059	12.361116	-13.906344	
10.5400	-16.426369	-34.854097	61.079197	21.254986	779.006295	-40.053747	29.711867	-45.000000	39.339454	-45.000000	-45.000000	-2623.288600	-3887.031701	19.074670	-139.213137	1800.667161	-186.339822	10.674846	12.612004	-1.652417	30.399656	-26.109693	-45.000000	-45.000000	-2077.421672	-2444.961767	26.434023	49.191753	1428.905227	43.680721	12.268412	-13.895513	
10.5500	-16.543845	-34.809835	60.965984	20.603457	779.145753	-40.159871	29.700420	-45.000000	39.340653	-45.000000	-45.000000	-2623.298158	-3886.996218	19.110678	-139.389793	1800.677760	-186.516875	10.654487	12.622087	-1.626518	30.424427	-26.197496	-45.000000	-45.000000	-2077.348150	-2444.915648	26.423795	49.161074	1428.947698	43.652100	12.172816	-13.930814	
10.5600	-16.676013	-34.765616	60.832675	19.885235	779.323564	-40.257504	29.693669	-45.000000	39.339760	-45.000000	-45.000000	-2623.299448	-3886.953699	19.147756	-139.572769	1800.684046	-186.691991	10.643453	12.633774	-1.603552	30.463160	-26.297685	-45.000000	-45.000000	-2077.252985	-2444.870800	26.424444	49.134110	1428.997427	43.633733	12.086786	-13.957884	
10.5700	-16.818004	-34.719526	60.686210	19.100736	779.543185	-40.344410	29.672526	-45.000000	39.341083	-45.000000	-45.000000	-2623.305735	-3886.908443	19.193827	-139.774444	1800.690589	-186.869850	10.629361	12.650687	-1.564752	30.489860	-26.402782	-45.000000	-45.000000	-2077.166790	-2444.810313	26.411968	49.099462	1429.045726	43.627634	12.004355	-14.036113	
10.5800	-16.979114	-34.672233	60.507828	18.249771	779.807056	-40.417683	29.651429	-45.000000	39.340925	-45.000000	-45.000000	-2623.308373	-3886.855809	19.247892	-139.982007	1800.685436	-187.051616	10.627198	12.673785	-1.530377	30.531814	-26.510544	-45.000000	-45.000000	-2077.058797	-2444.752482	26.426185	49.076144	1429.100499	43.643124	11.937230	-14.101948	
10.5900	-17.153379	-34.618017	60.311544	17.332539	780.116555	-40.474201	29.620161	-45.000000	39.340776	-45.000000	-45.000000	-2623.319651	-3886.796355	19.309456	-140.209664	1800.674460	-187.239245	10.626740	12.701555	-1.482370	30.565132	-26.627496	-45.000000	-45.000000	-2076.962368	-2444.684938	26.430605	49.054904	1429.151326	43.665065	11.872656	-14.207161	
10.6000	-17.337306	-34.566209	60.094414	16.348439	780.471940	-40.510678	29.587061	-45.000000	39.348823	-45.000000	-45.000000	-2623.326751	-3886.730969	19.369140	-140.445652	1800.652595	-187.432970	10.640254	12.732701	-1.439412	30.610863	-26.741365	-45.000000	-45.000000	-2076.844695	-2444.619997	26.458605	49.055777	1429.204826	43.685706	11.832970	-14.284200	
10.6100	-17.531979	-34.513860	59.861797	15.296627	780.873651	-40.526243	29.544500	-45.000000	39.364099	-45.000000	-45.000000	-2623.336027	-3886.666558	19.427772	-140.695178	1800.628964	-187.633833	10.657684	12.766865	-1.385343	30.650033	-26.859141	-45.000000	-45.000000	-2076.732998	-2444.546155	26.477420	49.066789	1429.253617	43.678154	11.803003	-14.376820	
10.6200	-17.736883	-34.467043	59.610035	14.176248	781.322311	-40.522229	29.501830	-45.000000	39.386475	-45.000000	-45.000000	-2623.340343	-3886.605802	19.487500	-140.953103	1800.607020	-187.842087	10.684358	12.804197	-1.342378	30.700965	-26.975633	-45.000000	-45.000000	-2076.605902	-2444.473060	26.505916	49.101189	1429.302535	43.628176	11.794144	-14.436485	
